leg6dof9musc_states
version=1
nRows=35
nColumns=15
inDegrees=yes

# SIMM Motion File Header:
name leg6dof9musc_states
datacolumns 15
datarows 35
otherdata 1
range 0.91200000 0.94600000
endheader
time	pelvis_tilt	pelvis_tx	pelvis_ty	hip_flexion_r	knee_angle_r	knee_angle_pat_r	ankle_angle_r	pelvis_tilt_u	pelvis_tx_u	pelvis_ty_u	hip_flexion_r_u	knee_angle_r_u	knee_angle_pat_r_u	ankle_angle_r_u
      0.91200000	      1.65762140	      0.03394254	      1.08049697	     10.27074426	    -20.16736787	    -20.16734157	     11.03050722	     -1.21785229	     -0.07273369	      0.15759551	    -94.67493746	     73.63437725	     73.63458432	      6.08530867
      0.91300000	      1.65638400	      0.03386950	      1.08065380	     10.17612478	    -20.09376843	    -20.09374193	     11.03667412	     -1.25658564	     -0.07334004	      0.15605841	    -94.56327853	     73.56195526	     73.56216234	      6.24936313
      0.91400000	      1.65510892	      0.03379586	      1.08080909	     10.08161925	    -20.02024896	    -20.02022225	     11.04300378	     -1.29321361	     -0.07394611	      0.15451039	    -94.44702632	     73.47445049	     73.47465756	      6.41079228
      0.91500000	      1.65379832	      0.03372161	      1.08096282	      9.98723218	    -19.94682467	    -19.94679775	     11.04949976	     -1.32761550	     -0.07455211	      0.15295202	    -94.32636426	     73.37158984	     73.37179692	      6.58196406
      0.91600000	      1.65245443	      0.03364675	      1.08111499	      9.89296796	    -19.87351090	    -19.87348378	     11.05617194	     -1.35981484	     -0.07515814	      0.15138358	    -94.20133146	     73.25341945	     73.25362653	      6.76311197
      0.91700000	      1.65107942	      0.03357129	      1.08126558	      9.79883096	    -19.80032293	    -19.80029560	     11.06303005	     -1.38986078	     -0.07576406	      0.14980482	    -94.07192053	     73.12000623	     73.12021330	      6.95373577
      0.91800000	      1.64967534	      0.03349523	      1.08141459	      9.70482568	    -19.72727582	    -19.72724827	     11.07007644	     -1.41798000	     -0.07636965	      0.14821525	    -93.93791103	     72.97172154	     72.97192861	      7.13958629
      0.91900000	      1.64824407	      0.03341855	      1.08156201	      9.61095670	    -19.65438439	    -19.65435664	     11.07730609	     -1.44423441	     -0.07697488	      0.14661488	    -93.79930382	     72.80863679	     72.80884387	      7.32024019
      0.92000000	      1.64678753	      0.03334128	      1.08170782	      9.51722852	    -19.58166357	    -19.58163562	     11.08472045	     -1.46852253	     -0.07757997	      0.14500422	    -93.65631521	     72.63052043	     72.63072750	      7.50895944
      0.92100000	      1.64530767	      0.03326339	      1.08185202	      9.42364551	    -19.50912835	    -19.50910019	     11.09232768	     -1.49091144	     -0.07818501	      0.14338353	    -93.50896107	     72.43746436	     72.43767143	      7.70589680
      0.92200000	      1.64380632	      0.03318491	      1.08199458	      9.33021203	    -19.43679360	    -19.43676523	     11.10013568	     -1.51149270	     -0.07878990	      0.14175256	    -93.35724994	     72.22958489	     72.22979197	      7.91042796
      0.92300000	      1.64228517	      0.03310581	      1.08213552	      9.23693255	    -19.36467396	    -19.36464538	     11.10814473	     -1.53054906	     -0.07939442	      0.14011081	    -93.20096346	     72.00727204	     72.00747912	      8.10791284
      0.92400000	      1.64074568	      0.03302612	      1.08227480	      9.14381165	    -19.29278380	    -19.29275501	     11.11634759	     -1.54818298	     -0.07999860	      0.13845830	    -93.04011560	     71.77064511	     71.77085218	      8.29801963
      0.92500000	      1.63918932	      0.03294582	      1.08241243	      9.05085375	    -19.22113751	    -19.22110852	     11.12474383	     -1.56431537	     -0.08060265	      0.13679556	    -92.87494629	     71.51954630	     71.51975338	      8.49465390
      0.92600000	      1.63761753	      0.03286491	      1.08254839	      8.95806317	    -19.14974949	    -19.14972029	     11.13334000	     -1.57904442	     -0.08120672	      0.13512289	    -92.70548213	     71.25413964	     71.25434671	      8.69779244
      0.92700000	      1.63603166	      0.03278340	      1.08268267	      8.86544419	    -19.07863395	    -19.07860455	     11.14214218	     -1.59250089	     -0.08181071	      0.13344009	    -92.53174629	     70.97461149	     70.97481856	      8.90662563
      0.92800000	      1.63443283	      0.03270129	      1.08281527	      8.77300119	    -19.00780482	    -19.00777520	     11.15114892	     -1.60500613	     -0.08241447	      0.13174674	    -92.35353661	     70.68136288	     70.68156995	      9.10682335
      0.92900000	      1.63282191	      0.03261857	      1.08294616	      8.68073863	    -18.93727571	    -18.93724589	     11.16035144	     -1.61668706	     -0.08301803	      0.13004292	    -92.17088165	     70.37457639	     70.37478346	      9.29817957
      0.93000000	      1.63119976	      0.03253525	      1.08307535	      8.58866081	    -18.86706021	    -18.86703018	     11.16974789	     -1.62747305	     -0.08362163	      0.12832924	    -91.98403497	     70.05420659	     70.05441367	      9.49465275
      0.93100000	      1.62956723	      0.03245133	      1.08320282	      8.49677193	    -18.79717176	    -18.79714153	     11.17934328	     -1.63747573	     -0.08422544	      0.12660608	    -91.79302898	     69.72049501	     69.72070208	      9.69601019
      0.93200000	      1.62792503	      0.03236680	      1.08332856	      8.40507612	    -18.72762359	    -18.72759315	     11.18914200	     -1.64684881	     -0.08482938	      0.12487335	    -91.59789597	     69.37369971	     69.37390678	      9.90125464
      0.93300000	      1.62627362	      0.03228167	      1.08345256	      8.31357760	    -18.65842857	    -18.65839792	     11.19914128	     -1.65592880	     -0.08543335	      0.12313075	    -91.39845071	     69.01422188	     69.01442896	     10.09706619
      0.93400000	      1.62461321	      0.03219594	      1.08357482	      8.22228066	    -18.58959927	    -18.58956841	     11.20933161	     -1.66484841	     -0.08603738	      0.12137849	    -91.19472896	     68.64231422	     68.64252130	     10.28335297
      0.93500000	      1.62294401	      0.03210960	      1.08369532	      8.13118947	    -18.52114807	    -18.52111701	     11.21971012	     -1.67353309	     -0.08664173	      0.11961724	    -90.98698333	     68.25806947	     68.25827654	     10.47340037
      0.93600000	      1.62126620	      0.03202265	      1.08381405	      8.04030801	    -18.45308715	    -18.45305588	     11.23028039	     -1.68208893	     -0.08724652	      0.11784747	    -90.77524698	     67.86180847	     67.86201554	     10.66683223
      0.93700000	      1.61957983	      0.03193510	      1.08393101	      7.94964027	    -18.38542835	    -18.38539688	     11.24104527	     -1.69067252	     -0.08785172	      0.11606922	    -90.55955629	     67.45386154	     67.45406862	     10.86256076
      0.93800000	      1.61788472	      0.03184695	      1.08404618	      7.85919030	    -18.31818317	    -18.31815149	     11.25200110	     -1.69961334	     -0.08845723	      0.11428237	    -90.33973739	     67.03462602	     67.03483309	     11.04869833
      0.93900000	      1.61618043	      0.03175819	      1.08415957	      7.76896219	    -18.25136275	    -18.25133086	     11.26313827	     -1.70903084	     -0.08906307	      0.11248724	    -90.11582726	     66.60441797	     66.60462504	     11.22523565
      0.94000000	      1.61446654	      0.03166882	      1.08427116	      7.67895991	    -18.18497793	    -18.18494583	     11.27445322	     -1.71883217	     -0.08966946	      0.11068457	    -89.88807079	     66.16345994	     66.16366702	     11.40425434
      0.94100000	      1.61274262	      0.03157885	      1.08438094	      7.58918730	    -18.11903929	    -18.11900699	     11.28594825	     -1.72909802	     -0.09027650	      0.10887487	    -89.65650072	     65.71211985	     65.71232692	     11.58535499
      0.94200000	      1.61100815	      0.03148827	      1.08448890	      7.49964815	    -18.05355703	    -18.05352452	     11.29762492	     -1.73996324	     -0.09088415	      0.10705834	    -89.42115558	     65.25076168	     65.25096875	     11.76749840
      0.94300000	      1.60926238	      0.03139708	      1.08459505	      7.41034633	    -17.98854098	    -17.98850826	     11.30947908	     -1.75172829	     -0.09149226	      0.10523505	    -89.18186570	     64.77975609	     64.77996317	     11.94028958
      0.94400000	      1.60750435	      0.03130529	      1.08469937	      7.32128575	    -17.92400062	    -17.92396769	     11.32150137	     -1.76448407	     -0.09210087	      0.10340540	    -88.93866715	     64.29945625	     64.29966332	     12.10376635
      0.94500000	      1.60573313	      0.03121288	      1.08480186	      7.23247020	    -17.85994507	    -17.85991193	     11.33368781	     -1.77811293	     -0.09271009	      0.10157013	    -88.69179931	     63.81018796	     63.81039504	     12.26860822
      0.94600000	      1.60394783	      0.03111986	      1.08490251	      7.14390334	    -17.79638310	    -17.79634976	     11.34603965	     -1.79266595	     -0.09332000	      0.09972979	    -88.44129613	     63.31234841	     63.31255548	     12.43451077
